HIERARCHY
ROOT Hips
{
  OFFSET 103.367 180.658 42.4521
  CHANNELS 6 Xposition Yposition Zposition Zrotation Xrotation Yrotation
  JOINT Spine
  {
    OFFSET 0 10.1816 0.1315
    CHANNELS 6 Xposition Yposition Zposition Zrotation Xrotation Yrotation
    JOINT Spine1
    {
      OFFSET 0 10.0835 -1.0008
      CHANNELS 6 Xposition Yposition Zposition Zrotation Xrotation Yrotation
      JOINT Spine2
      {
        OFFSET 0 9.1 -1.3734
        CHANNELS 6 Xposition Yposition Zposition Zrotation Xrotation Yrotation
        JOINT Neck
        {
          OFFSET 0 16.6717 -2.5162
          CHANNELS 6 Xposition Yposition Zposition Zrotation Xrotation Yrotation
          JOINT Head
          {
            OFFSET 0 9.6179 1.685
            CHANNELS 6 Xposition Yposition Zposition Zrotation Xrotation Yrotation
            JOINT HeadTop_End
            {
              OFFSET 0 17.8152 2.585
              CHANNELS 6 Xposition Yposition Zposition Zrotation Xrotation Yrotation
              End Site
              {
                OFFSET 0 0 0
              }
            }
            JOINT LeftEye
            {
              OFFSET 3.0676 6.4095 9.2836
              CHANNELS 6 Xposition Yposition Zposition Zrotation Xrotation Yrotation
              End Site
              {
                OFFSET 0 0 0
              }
            }
            JOINT RightEye
            {
              OFFSET -3.0676 6.4095 9.2835
              CHANNELS 6 Xposition Yposition Zposition Zrotation Xrotation Yrotation
              End Site
              {
                OFFSET 0 0 0
              }
            }
          }
        }
        JOINT LeftShoulder
        {
          OFFSET 4.5704 10.946 -2.628
          CHANNELS 6 Xposition Yposition Zposition Zrotation Xrotation Yrotation
          JOINT LeftArm
          {
            OFFSET 10.5924 -0.5246 -2.2321
            CHANNELS 6 Xposition Yposition Zposition Zrotation Xrotation Yrotation
            JOINT LeftForeArm
            {
              OFFSET 27.8415 -0.0001 0
              CHANNELS 6 Xposition Yposition Zposition Zrotation Xrotation Yrotation
              JOINT LeftHand
              {
                OFFSET 28.3288 0 0
                CHANNELS 6 Xposition Yposition Zposition Zrotation Xrotation Yrotation
                JOINT LeftHandThumb1
                {
                  OFFSET 2.4661 -1.575 2.6824
                  CHANNELS 6 Xposition Yposition Zposition Zrotation Xrotation Yrotation
                  JOINT LeftHandThumb2
                  {
                    OFFSET 3.2298 -1.8647 1.8647
                    CHANNELS 6 Xposition Yposition Zposition Zrotation Xrotation Yrotation
                    JOINT LeftHandThumb3
                    {
                      OFFSET 2.6526 -1.5315 1.5315
                      CHANNELS 6 Xposition Yposition Zposition Zrotation Xrotation Yrotation
                      End Site
                      {
                        OFFSET 1.9546 -1.1285 1.1285
                      }
                    }
                  }
                }
                JOINT LeftHandIndex1
                {
                  OFFSET 9.1093 -0.5171 2.2601
                  CHANNELS 6 Xposition Yposition Zposition Zrotation Xrotation Yrotation
                  JOINT LeftHandIndex2
                  {
                    OFFSET 3.6764 0 0
                    CHANNELS 6 Xposition Yposition Zposition Zrotation Xrotation Yrotation
                    JOINT LeftHandIndex3
                    {
                      OFFSET 2.8831 0 0
                      CHANNELS 6 Xposition Yposition Zposition Zrotation Xrotation Yrotation
                      End Site
                      {
                        OFFSET 2.3927 0 0
                      }
                    }
                  }
                }
                JOINT LeftHandMiddle1
                {
                  OFFSET 9.5334 0 0
                  CHANNELS 6 Xposition Yposition Zposition Zrotation Xrotation Yrotation
                  JOINT LeftHandMiddle2
                  {
                    OFFSET 3.6982 0 0
                    CHANNELS 6 Xposition Yposition Zposition Zrotation Xrotation Yrotation
                    JOINT LeftHandMiddle3
                    {
                      OFFSET 2.9509 0 0
                      CHANNELS 6 Xposition Yposition Zposition Zrotation Xrotation Yrotation
                      End Site
                      {
                        OFFSET 2.8339 0 0
                      }
                    }
                  }
                }
                JOINT LeftHandRing1
                {
                  OFFSET 9.1045 -0.0439 -1.8651
                  CHANNELS 6 Xposition Yposition Zposition Zrotation Xrotation Yrotation
                  JOINT LeftHandRing2
                  {
                    OFFSET 3.154 0 0
                    CHANNELS 6 Xposition Yposition Zposition Zrotation Xrotation Yrotation
                    JOINT LeftHandRing3
                    {
                      OFFSET 2.9377 0 0
                      CHANNELS 6 Xposition Yposition Zposition Zrotation Xrotation Yrotation
                      End Site
                      {
                        OFFSET 2.6475 0 0
                      }
                    }
                  }
                }
                JOINT LeftHandPinky1
                {
                  OFFSET 8.0778 -0.4887 -3.8061
                  CHANNELS 6 Xposition Yposition Zposition Zrotation Xrotation Yrotation
                  JOINT LeftHandPinky2
                  {
                    OFFSET 3.6 0 0
                    CHANNELS 6 Xposition Yposition Zposition Zrotation Xrotation Yrotation
                    JOINT LeftHandPinky3
                    {
                      OFFSET 2.1142 0 0
                      CHANNELS 6 Xposition Yposition Zposition Zrotation Xrotation Yrotation
                      End Site
                      {
                        OFFSET 1.9757 0 0
                      }
                    }
                  }
                }
              }
            }
          }
        }
        JOINT RightShoulder
        {
          OFFSET -4.57 10.9462 -2.628
          CHANNELS 6 Xposition Yposition Zposition Zrotation Xrotation Yrotation
          JOINT RightArm
          {
            OFFSET -10.5928 -0.5248 -2.2321
            CHANNELS 6 Xposition Yposition Zposition Zrotation Xrotation Yrotation
            JOINT RightForeArm
            {
              OFFSET -27.8415 0 0
              CHANNELS 6 Xposition Yposition Zposition Zrotation Xrotation Yrotation
              JOINT RightHand
              {
                OFFSET -28.3288 0 0.0001
                CHANNELS 6 Xposition Yposition Zposition Zrotation Xrotation Yrotation
                JOINT RightHandPinky1
                {
                  OFFSET -8.0767 -0.4885 -3.806
                  CHANNELS 6 Xposition Yposition Zposition Zrotation Xrotation Yrotation
                  JOINT RightHandPinky2
                  {
                    OFFSET -3.6 0 0.0001
                    CHANNELS 6 Xposition Yposition Zposition Zrotation Xrotation Yrotation
                    JOINT RightHandPinky3
                    {
                      OFFSET -2.1142 0 0
                      CHANNELS 6 Xposition Yposition Zposition Zrotation Xrotation Yrotation
                      End Site
                      {
                        OFFSET -1.9757 0 0
                      }
                    }
                  }
                }
                JOINT RightHandRing1
                {
                  OFFSET -9.1036 -0.0439 -1.8651
                  CHANNELS 6 Xposition Yposition Zposition Zrotation Xrotation Yrotation
                  JOINT RightHandRing2
                  {
                    OFFSET -3.154 0 0
                    CHANNELS 6 Xposition Yposition Zposition Zrotation Xrotation Yrotation
                    JOINT RightHandRing3
                    {
                      OFFSET -2.9377 0 0
                      CHANNELS 6 Xposition Yposition Zposition Zrotation Xrotation Yrotation
                      End Site
                      {
                        OFFSET -2.6475 0 0
                      }
                    }
                  }
                }
                JOINT RightHandMiddle1
                {
                  OFFSET -9.5325 0 0
                  CHANNELS 6 Xposition Yposition Zposition Zrotation Xrotation Yrotation
                  JOINT RightHandMiddle2
                  {
                    OFFSET -3.6982 0 0
                    CHANNELS 6 Xposition Yposition Zposition Zrotation Xrotation Yrotation
                    JOINT RightHandMiddle3
                    {
                      OFFSET -2.9509 0 0
                      CHANNELS 6 Xposition Yposition Zposition Zrotation Xrotation Yrotation
                      End Site
                      {
                        OFFSET -2.8339 0 0.0001
                      }
                    }
                  }
                }
                JOINT RightHandIndex1
                {
                  OFFSET -9.1083 -0.5168 2.2601
                  CHANNELS 6 Xposition Yposition Zposition Zrotation Xrotation Yrotation
                  JOINT RightHandIndex2
                  {
                    OFFSET -3.6764 0 0
                    CHANNELS 6 Xposition Yposition Zposition Zrotation Xrotation Yrotation
                    JOINT RightHandIndex3
                    {
                      OFFSET -2.8831 0 0
                      CHANNELS 6 Xposition Yposition Zposition Zrotation Xrotation Yrotation
                      End Site
                      {
                        OFFSET -2.3927 0 0
                      }
                    }
                  }
                }
                JOINT RightHandThumb1
                {
                  OFFSET -2.4648 -1.5727 2.6826
                  CHANNELS 6 Xposition Yposition Zposition Zrotation Xrotation Yrotation
                  JOINT RightHandThumb2
                  {
                    OFFSET -3.2298 -1.8647 1.8647
                    CHANNELS 6 Xposition Yposition Zposition Zrotation Xrotation Yrotation
                    JOINT RightHandThumb3
                    {
                      OFFSET -2.6526 -1.5314 1.5314
                      CHANNELS 6 Xposition Yposition Zposition Zrotation Xrotation Yrotation
                      End Site
                      {
                        OFFSET -1.9546 -1.1285 1.1285
                      }
                    }
                  }
                }
              }
            }
          }
        }
      }
    }
  }
  JOINT LeftUpLeg
  {
    OFFSET 8.2078 -6.7517 -1.5996
    CHANNELS 6 Xposition Yposition Zposition Zrotation Xrotation Yrotation
    JOINT LeftLeg
    {
      OFFSET 0 -44.3705 0.2846
      CHANNELS 6 Xposition Yposition Zposition Zrotation Xrotation Yrotation
      JOINT LeftFoot
      {
        OFFSET 0 -44.4279 -2.9822
        CHANNELS 6 Xposition Yposition Zposition Zrotation Xrotation Yrotation
        JOINT LeftToeBase
        {
          OFFSET 0 -8.7287 10.7106
          CHANNELS 6 Xposition Yposition Zposition Zrotation Xrotation Yrotation
          End Site
          {
            OFFSET 0 -0.0007 9.2781
          }
        }
      }
    }
  }
  JOINT RightUpLeg
  {
    OFFSET -8.2078 -6.7517 -1.5996
    CHANNELS 6 Xposition Yposition Zposition Zrotation Xrotation Yrotation
    JOINT RightLeg
    {
      OFFSET 0 -44.3705 0.2862
      CHANNELS 6 Xposition Yposition Zposition Zrotation Xrotation Yrotation
      JOINT RightFoot
      {
        OFFSET 0 -44.4277 -2.9838
        CHANNELS 6 Xposition Yposition Zposition Zrotation Xrotation Yrotation
        JOINT RightToeBase
        {
          OFFSET 0 -8.7287 10.7106
          CHANNELS 6 Xposition Yposition Zposition Zrotation Xrotation Yrotation
          End Site
          {
            OFFSET 0 -0.0007 9.2781
          }
        }
      }
    }
  }
}
MOTION
Frames:	4
Frame Time:	0.0333333
113.588 204.652 42.3129 -3.77957 17.4706 -168.609 -1.42109e-014 10.1816 0.1315 -2.5277 4.76916 -1.46502 0 10.0835 -1.0008 -7.34713 9.65475 -3.0059 0 9.1 -1.3734 -7.34714 9.65475 -3.0059 0 16.6717 -2.5162 10.7785 -2.39659 -2.89029 0 9.6179 1.685 7.07982 -30.711 -8.27169 -1.42109e-014 17.8152 2.585 1.76556e-031 -6.36111e-015 1.59028e-015 3.0676 6.4095 9.2836 1.76556e-031 -6.36111e-015 1.59028e-015 -3.0676 6.4095 9.2835 1.76556e-031 -6.36111e-015 1.59028e-015 4.5704 10.946 -2.628 -2.88063 0.891379 -14.8539 10.5924 -0.5246 -2.2321 -45.781 -2.6134 -47.9633 27.8415 -0.0001 0 10.9526 -7.52406 -76.8185 28.3288 -2.4869e-014 2.84217e-014 -25.8481 42.7753 21.3362 2.4661 -1.575 2.6824 -15.0681 42.5072 -10.31 3.2298 -1.8647 1.8647 2.4854 4.21861 31.431 2.6526 -1.5315 1.5315 -7.31612e-005 -2.10978e-006 -7.04029e-005 9.1093 -0.5171 2.2601 -39.2997 -6.99088 2.95287 3.6764 -2.84217e-014 -2.84217e-014 -26.5399 0.019771 0.531189 2.8831 -2.84217e-014 -2.84217e-014 1.32417e-031 4.77083e-015 -1.59028e-015 9.5334 0 0 -44.5826 -1.42809 -2.32189 3.6982 0 0 -33.1697 0.780702 -2.57514 2.9509 0 0 6.36111e-015 -3.18055e-015 -3.18055e-015 9.1045 -0.0439 -1.8651 -44.062 -2.20639 0.991099 3.154 2.84217e-014 0 -43.4914 1.3373 -3.38056 2.9377 1.42109e-014 2.84217e-014 -3.18055e-015 0 -4.77083e-015 8.0778 -0.4887 -3.8061 -33.9361 -1.69425 15.4769 3.6 0 0 -47.3741 3.28352 -2.2897 2.1142 -1.42109e-014 -2.84217e-014 3.18055e-015 0 2.38542e-015 -4.57 10.9462 -2.628 -8.04271 0.573006 -5.00974 -10.5928 -0.5248 -2.2321 55.8039 -14.2415 80.485 -27.8415 0 -1.42109e-014 -11.593 13.0751 67.1656 -28.3288 0 0.0001 -2.3867 3.12191 -18.9099 -8.0767 -0.4885 -3.806 -10.4595 2.06777 0.00922077 -3.6 2.84217e-014 0.0001 56.9902 4.30148 11.174 -2.1142 2.84217e-014 1.42109e-014 -6.88494e-006 1.56108e-006 7.57351e-006 -9.1036 -0.0439 -1.8651 -4.82844 0.328575 -0.630265 -3.154 0 0 50.4872 2.09699 5.18884 -2.9377 0 0 -1.59028e-015 0 -6.36111e-015 -9.5325 5.68434e-014 0 0.158938 -0.781641 -3.81437 -3.6982 -5.68434e-014 1.42109e-014 57.1725 1.67609 2.66047 -2.9509 2.84217e-014 1.42109e-014 4.71186e-006 -4.91591e-006 -0.00201245 -9.1083 -0.5168 2.2601 -5.54141 -6.64735 -2.15982 -3.6764 5.68434e-014 0 53.2434 -0.637221 -3.48442 -2.8831 -2.84217e-014 -1.42109e-014 -6.36111e-015 1.59028e-015 -0 -2.4648 -1.5727 2.6826 -14.8835 8.20805 13.4745 -3.2298 -1.8647 1.8647 10.8179 -4.27826 -6.00206 -2.6526 -1.5314 1.5314 -0.00122534 -5.13006e-006 -0.00121435 8.2078 -6.7517 -1.5996 43.7311 -46.2637 59.1141 2.84217e-014 -44.3705 0.2846 -167.913 74.4175 166.101 -1.42109e-014 -44.4279 -2.9822 7.22233 -14.9388 -16.0196 -1.42109e-014 -8.7287 10.7106 0.064571 -0.866829 -0.0266018 -8.2078 -6.7517 -1.5996 -23.3829 -32.5152 -37.0492 1.42109e-014 -44.3705 0.2862 4.2253 57.3367 -2.48474 0 -44.4277 -2.9838 6.58335 -15.2008 16.02 0 -8.7287 10.7106 0.265606 1.25598 -0.117721 
113.809 206.382 42.1695 -4.32784 17.0465 -166.359 -1.42109e-014 10.1816 0.1315 -2.60227 4.72878 -1.49836 -1.42109e-014 10.0835 -1.0008 -7.82642 9.59911 -3.23097 0 9.1 -1.3734 -7.82643 9.59911 -3.23097 0 16.6717 -2.5162 10.7861 -1.70851 -3.28147 -5.68434e-014 9.6179 1.685 7.06958 -31.8109 -10.2758 0 17.8152 2.585 -0 -6.36111e-015 -0 3.0676 6.4095 9.2836 -0 -6.36111e-015 -0 -3.0676 6.4095 9.2835 -0 -6.36111e-015 -0 4.5704 10.946 -2.628 -2.55195 0.792206 -13.3614 10.5924 -0.5246 -2.2321 -40.6016 1.68548 -48.4627 27.8415 -0.0001 2.84217e-014 8.97106 -8.1588 -77.4096 28.3288 3.55271e-015 0 -19.1367 43.4143 20.0714 2.4661 -1.575 2.6824 -10.9255 43.4507 -12.8341 3.2298 -1.8647 1.8647 1.21009 -0.547206 23.7738 2.6526 -1.5315 1.5315 -7.31612e-005 -2.10978e-006 -7.04029e-005 9.1093 -0.5171 2.2601 -40.0133 -6.95757 3.56798 3.6764 5.68434e-014 2.84217e-014 -19.4001 0.13165 0.449976 2.8831 -2.84217e-014 2.84217e-014 0 0 -1.59028e-015 9.5334 0 2.84217e-014 -43.6039 -1.28964 -3.19041 3.6982 0 0 -26.4697 0.522654 -2.09088 2.9509 -2.84217e-014 -2.84217e-014 -9.54166e-015 0 -1.59028e-015 9.1045 -0.0439 -1.8651 -41.2218 -2.45119 2.57929 3.154 2.84217e-014 0 -37.406 0.985373 -2.98906 2.9377 0 0 3.18055e-015 0 -1.59028e-015 8.0778 -0.4887 -3.8061 -33.544 -1.38585 13.5132 3.6 2.84217e-014 2.84217e-014 -47.061 3.4259 -1.7647 2.1142 0 0 -3.18055e-015 1.59028e-015 -7.95139e-016 -4.57 10.9462 -2.628 -8.32324 0.482424 -3.38552 -10.5928 -0.5248 -2.2321 63.2657 -10.3193 74.3796 -27.8415 0 -2.13163e-014 -6.40529 9.43157 70.0164 -28.3288 5.68434e-014 0.0001 14.6501 13.8546 -27.771 -8.0767 -0.4885 -3.806 -3.41701 0.103519 1.882 -3.6 -5.68434e-014 0.0001 67.0339 5.7978 11.1742 -2.1142 -1.42109e-014 0 -6.88494e-006 1.56108e-006 7.57351e-006 -9.1036 -0.0439 -1.8651 0.239534 0.60803 -0.623723 -3.154 -5.68434e-014 -1.42109e-014 59.1799 2.9143 5.67249 -2.9377 0 0 9.54166e-015 3.18055e-015 -0 -9.5325 1.13687e-013 1.42109e-014 3.87905 -1.13577 -3.48424 -3.6982 0 -1.42109e-014 66.2239 2.17606 3.02297 -2.9509 0 2.84217e-014 4.71186e-006 -4.91591e-006 -0.00201245 -9.1083 -0.5168 2.2601 -1.90942 -7.07325 -1.55469 -3.6764 -5.68434e-014 0 63.1699 -0.963067 -3.2426 -2.8831 0 0 0 0 -1.59028e-015 -2.4648 -1.5727 2.6826 -15.8833 15.1233 16.5212 -3.2298 -1.8647 1.8647 12.3763 -4.97236 -5.82365 -2.6526 -1.5314 1.5314 -0.00122534 -5.13006e-006 -0.00121435 8.2078 -6.7517 -1.5996 47.6099 -48.5003 66.3235 -1.42109e-014 -44.3705 0.2846 -170.139 70.477 167.733 -1.42109e-014 -44.4279 -2.9822 4.20427 -20.8088 -20.9242 2.84217e-014 -8.7287 10.7106 0.0633598 -0.328 -0.0263718 -8.2078 -6.7517 -1.5996 -21.5557 -30.3985 -34.7999 -1.42109e-014 -44.3705 0.2862 3.30197 53.3339 -2.16253 -1.42109e-014 -44.4277 -2.9838 6.55209 -15.7655 14.3437 2.84217e-014 -8.7287 10.7106 0.268793 2.35976 -0.12482 
113.589 209.574 42.427 -4.38948 16.8806 -163.971 0 10.1816 0.1315 -2.49242 4.75184 -1.12108 1.42109e-014 10.0835 -1.0008 -7.64 9.62516 -2.57597 0 9.1 -1.3734 -7.64 9.62515 -2.57597 0 16.6717 -2.5162 10.8774 -0.636757 -4.00996 0 9.6179 1.685 5.84445 -33.3196 -14.0709 0 17.8152 2.585 0 6.36111e-015 -0 3.0676 6.4095 9.2836 0 6.36111e-015 -0 -3.0676 6.4095 9.2835 0 6.36111e-015 -0 4.5704 10.946 -2.628 -2.53626 0.766491 -12.7192 10.5924 -0.5246 -2.2321 -34.0569 6.51343 -52.1139 27.8415 -0.0001 2.84217e-014 7.61334 -7.4976 -77.893 28.3288 2.13163e-014 0 -13.5774 54.7115 15.9958 2.4661 -1.575 2.6824 -4.00844 39.9296 -16.4361 3.2298 -1.8647 1.8647 -1.43308 -4.96314 14.9654 2.6526 -1.5315 1.5315 -7.31612e-005 -2.10978e-006 -7.04029e-005 9.1093 -0.5171 2.2601 -42.1588 -6.97017 4.007 3.6764 -2.84217e-014 0 -16.4997 0.104025 0.384354 2.8831 -2.84217e-014 0 6.36111e-015 4.77083e-015 -6.36111e-015 9.5334 -5.68434e-014 -1.42109e-014 -43.5674 -1.25217 -4.1359 3.6982 2.84217e-014 -1.42109e-014 -23.459 0.412369 -1.86894 2.9509 2.84217e-014 0 3.18055e-015 0 -0 9.1045 -0.0439 -1.8651 -38.7403 -2.42384 4.13044 3.154 0 0 -34.2429 0.829483 -2.76747 2.9377 0 -1.42109e-014 1.76556e-031 3.18055e-015 -3.18055e-015 8.0778 -0.4887 -3.8061 -32.901 -0.862506 10.8605 3.6 0 0 -46.5951 3.4779 -1.30849 2.1142 2.84217e-014 0 -8.82781e-032 -3.18055e-015 -1.59028e-015 -4.57 10.9462 -2.628 -7.70598 0.352286 -0.90761 -10.5928 -0.5248 -2.2321 69.0577 -10.4864 65.9583 -27.8415 5.68434e-014 1.42109e-014 -0.72126 6.42255 75.5594 -28.3288 0 0.0001 22.1923 26.2633 -35.8264 -8.0767 -0.4885 -3.806 1.12418 -0.489836 2.87862 -3.6 0 0.0001 71.2341 6.51379 10.6208 -2.1142 -1.42109e-014 0 -6.88494e-006 1.56108e-006 7.57351e-006 -9.1036 -0.0439 -1.8651 6.37155 0.638159 -0.541003 -3.154 -5.68434e-014 1.42109e-014 64.3565 3.437 5.86588 -2.9377 1.42109e-014 0 -0 0 3.18055e-015 -9.5325 0 0 9.68561 -1.61745 -3.17727 -3.6982 0 0 71.202 2.46011 3.23698 -2.9509 1.42109e-014 -1.42109e-014 4.71186e-006 -4.91591e-006 -0.00201245 -9.1083 -0.5168 2.2601 3.46838 -7.37133 -1.23163 -3.6764 0 1.42109e-014 68.2059 -1.17714 -2.84168 -2.8831 -1.42109e-014 0 -3.18055e-015 1.59028e-015 -7.95139e-016 -2.4648 -1.5727 2.6826 -17.116 21.1293 21.908 -3.2298 -1.8647 1.8647 13.9199 -5.6249 -5.65434 -2.6526 -1.5314 1.5314 -0.00122534 -5.13006e-006 -0.00121435 8.2078 -6.7517 -1.5996 46.5283 -49.9118 69.4342 -4.26326e-014 -44.3705 0.2846 -169.016 72.5407 165.748 0 -44.4279 -2.9822 0.284375 -22.7587 -23.7772 5.68434e-014 -8.7287 10.7106 0.0610861 0.668093 -0.02587 -8.2078 -6.7517 -1.5996 -18.025 -26.6611 -30.9145 1.42109e-014 -44.3705 0.2862 2.12221 45.7672 -2.3848 0 -44.4277 -2.9838 7.89373 -11.8069 10.8311 1.42109e-014 -8.7287 10.7106 0.268853 2.3897 -0.125038 
112.941 213.442 42.9897 -4.14972 16.1727 -161.298 -1.42109e-014 10.1816 0.1315 -2.21114 4.7065 -0.683501 -1.42109e-014 10.0835 -1.0008 -6.87036 9.49825 -1.7513 0 9.1 -1.3734 -6.87036 9.49825 -1.7513 0 16.6717 -2.5162 10.7995 0.212783 -4.82246 2.84217e-014 9.6179 1.685 3.02921 -33.9568 -18.7282 0 17.8152 2.585 8.82781e-032 3.18055e-015 -1.59028e-015 3.0676 6.4095 9.2836 8.82781e-032 3.18055e-015 -1.59028e-015 -3.0676 6.4095 9.2835 8.82781e-032 3.18055e-015 -1.59028e-015 4.5704 10.946 -2.628 -3.15152 0.943763 -13.6677 10.5924 -0.5246 -2.2321 -27.699 7.69688 -58.2687 27.8415 -0.0001 2.84217e-014 7.60698 -5.06 -78.2316 28.3288 -1.42109e-014 -2.84217e-014 1.36189 69.2751 -2.23567 2.4661 -1.575 2.6824 2.06587 31.6697 -19.0567 3.2298 -1.8647 1.8647 -4.3728 -7.63532 7.06887 2.6526 -1.5315 1.5315 -7.31612e-005 -2.10978e-006 -7.04029e-005 9.1093 -0.5171 2.2601 -44.0441 -7.00824 4.22378 3.6764 0 -3.55271e-015 -16.7855 -0.00444328 0.344937 2.8831 0 0 6.36111e-015 7.95139e-016 1.59028e-015 9.5334 0 -1.06581e-014 -43.4875 -1.31335 -4.78685 3.6982 0 1.06581e-014 -23.3496 0.386303 -1.86823 2.9509 0 0 0 0 -0 9.1045 -0.0439 -1.8651 -36.6457 -2.14189 5.26302 3.154 0 -1.95399e-014 -33.5425 0.813857 -2.71116 2.9377 -2.84217e-014 -1.86517e-014 -8.82781e-032 3.18055e-015 1.59028e-015 8.0778 -0.4887 -3.8061 -32.2934 -0.462355 8.53225 3.6 -5.68434e-014 -1.77636e-015 -46.14 3.47035 -0.996994 2.1142 0 7.10543e-015 -1.76556e-031 3.18055e-015 3.18055e-015 -4.57 10.9462 -2.628 -6.21703 0.298971 1.27381 -10.5928 -0.5248 -2.2321 73.1247 -12.4863 57.4795 -27.8415 0 -1.42109e-014 2.29289 4.99082 82.4277 -28.3288 5.68434e-014 0.0001 29.0791 35.6883 -43.312 -8.0767 -0.4885 -3.806 3.38193 -0.154674 0.827071 -3.6 0 0.0001 73.3467 7.02678 10.0497 -2.1142 0 -1.42109e-014 -6.88494e-006 1.56108e-006 7.57351e-006 -9.1036 -0.0439 -1.8651 9.74618 0.715025 -0.36104 -3.154 5.68434e-014 0 67.3101 3.7609 5.92779 -2.9377 0 1.42109e-014 1.32417e-031 9.54166e-015 -7.95139e-016 -9.5325 0 0 12.5608 -1.8241 -2.582 -3.6982 0 1.42109e-014 73.4652 2.57217 3.37511 -2.9509 -7.10543e-015 1.42109e-014 4.71186e-006 -4.91591e-006 -0.00201245 -9.1083 -0.5168 2.2601 4.98439 -7.36462 -0.753112 -3.6764 -5.68434e-014 1.42109e-014 69.7512 -1.32281 -2.40596 -2.8831 0 1.42109e-014 -6.36111e-015 1.59028e-015 -0 -2.4648 -1.5727 2.6826 -23.3708 27.5843 25.5938 -3.2298 -1.8647 1.8647 15.1977 -6.14009 -5.51789 -2.6526 -1.5314 1.5314 -0.00122534 -5.13006e-006 -0.00121435 8.2078 -6.7517 -1.5996 40.8998 -51.3969 68.2322 0 -44.3705 0.2846 -163.239 78.9859 159.64 0 -44.4279 -2.9822 -1.79836 -21.6996 -23.9126 0 -8.7287 10.7106 0.0610652 0.670612 -0.0253753 -8.2078 -6.7517 -1.5996 -14.7417 -23.0209 -27.1987 -2.84217e-014 -44.3705 0.2862 0.853392 36.6109 -3.00507 0 -44.4277 -2.9838 10.0601 -2.6081 5.47052 -1.42109e-014 -8.7287 10.7106 0.265531 1.22994 -0.117552 
